<svg width="120" height="120" viewBox="0 0 120 120" fill="none" xmlns="http://www.w3.org/2000/svg">
<g clip-path="url(#clip0_29_2)">
<path d="M60 119.5C92.8609 119.5 119.5 92.8609 119.5 60C119.5 27.1391 92.8609 0.5 60 0.5C27.1391 0.5 0.5 27.1391 0.5 60C0.5 92.8609 27.1391 119.5 60 119.5Z" stroke="#DC4F00" stroke-width="3" stroke-dasharray="4 4"/>
<path d="M60 115.5C90.3757 115.5 115 90.8757 115 60.5C115 30.1243 90.3757 5.5 60 5.5C29.6243 5.5 5 30.1243 5 60.5C5 90.8757 29.6243 115.5 60 115.5Z" fill="#DC4F00"/>
<path fill-rule="evenodd" clip-rule="evenodd" d="M59 30.9968C57.468 30.9968 55.951 31.2684 54.5355 31.7961C53.12 32.3238 51.834 33.0973 50.7505 34.0724C49.667 35.0474 48.8077 36.205 48.2214 37.479C47.6351 38.753 47.3334 40.1184 47.3334 41.4974C47.3334 42.8763 47.6351 44.2418 48.2214 45.5157C48.8077 46.7897 49.667 47.9473 50.7505 48.9224C51.834 49.8974 53.12 50.671 54.5355 51.1985C55.951 51.7265 57.468 51.998 59 51.998C62.094 51.998 65.0615 50.8915 67.2495 48.9224C69.4375 46.9531 70.6665 44.2823 70.6665 41.4974C70.6665 38.7124 69.4375 36.0416 67.2495 34.0724C65.0615 32.1031 62.094 30.9968 59 30.9968ZM39.5555 41.4974C39.5563 38.1861 40.6007 34.9429 42.5676 32.1446C44.5345 29.3463 47.343 27.1076 50.667 25.6885C53.991 24.2695 57.6945 23.7283 61.3465 24.1279C64.9985 24.5275 68.45 25.8514 71.2995 27.9459C74.149 30.0404 76.2795 32.8195 77.4445 35.9605C78.609 39.1015 78.76 42.4754 77.879 45.6904C76.9985 48.9054 75.1225 51.8295 72.469 54.123C69.8155 56.417 66.4935 57.986 62.889 58.648V76.499C62.889 77.4275 62.479 78.3175 61.75 78.974C61.0205 79.6305 60.0315 79.9995 59 79.9995C57.9685 79.9995 56.9795 79.6305 56.25 78.974C55.521 78.3175 55.111 77.4275 55.111 76.499V58.648C50.72 57.84 46.7733 55.692 43.9389 52.567C41.1045 49.4417 39.5561 45.5315 39.5555 41.4974ZM49.235 73.349C49.3124 73.8035 49.2894 74.2675 49.1674 74.714C49.0455 75.1605 48.827 75.5815 48.5243 75.952C48.2216 76.3225 47.8408 76.636 47.4036 76.874C46.9663 77.112 46.4813 77.27 45.9761 77.339C41.0061 78.018 37.0589 79.0505 34.465 80.192C29.7206 82.2815 35.2661 83.783 38.1595 84.595C43.32 86.0475 50.6895 86.9995 59 86.9995C67.3105 86.9995 74.68 86.0475 79.8405 84.595C82.7535 83.776 88.2795 82.285 83.535 80.192C80.941 79.0505 76.994 78.0215 72.024 77.339C71.513 77.276 71.0215 77.1225 70.5775 76.8865C70.1335 76.651 69.7455 76.338 69.437 75.9665C69.1285 75.595 68.905 75.1715 68.78 74.7215C68.655 74.2715 68.6305 73.8035 68.708 73.3445C68.7855 72.886 68.9635 72.4455 69.232 72.0495C69.5005 71.6535 69.8535 71.309 70.271 71.037C70.6885 70.7645 71.162 70.57 71.664 70.464C72.1655 70.358 72.686 70.3425 73.1945 70.4195C78.592 71.1545 83.391 72.334 86.957 73.9055C90.395 75.421 94 77.9725 94 81.7495C94 84.588 91.962 86.6495 89.979 87.969C81.618 93.5275 68.862 94 59 94C50.1255 94 41.9394 92.992 35.8416 91.277C30.9805 89.912 24 87.2165 24 81.7495C24 77.969 27.605 75.421 31.0428 73.909C34.6089 72.334 39.4117 71.158 44.8017 70.4195C45.3068 70.3495 45.8222 70.3705 46.3184 70.48C46.8147 70.59 47.282 70.7865 47.6937 71.059C48.1054 71.3315 48.4535 71.674 48.7179 72.0675C48.9824 72.461 49.1581 72.8945 49.235 73.349Z" fill="white"/>
</g>
<defs>
<clipPath id="clip0_29_2">
<rect width="120" height="120" fill="white"/>
</clipPath>
</defs>
</svg>
